<svg xmlns="http://www.w3.org/2000/svg" xmlns:xlink="http://www.w3.org/1999/xlink" width="62" height="62" viewBox="0 0 62 62"><defs><path id="a" d="M.327.06h15.564v15.462H.327V.06z"/></defs><g fill="none" fill-rule="evenodd"><path fill="#FEC33B" d="M20.56 52.495C13.195 59.81 4.587 63.12 1.332 59.886c-3.255-3.233.076-11.786 7.44-19.103C16.137 33.467 24.745 30.157 28 33.391c3.255 3.235-.075 11.787-7.44 19.104"/><path fill="#F7941E" d="M21.49 48.837c-5.646 5.608-12.243 8.144-14.739 5.666-2.495-2.478.059-9.034 5.703-14.642 5.645-5.608 12.243-8.144 14.738-5.666 2.495 2.48-.059 9.035-5.703 14.642"/><path fill="#F15A29" d="M23.102 43.946c-3.576 3.553-7.757 5.16-9.338 3.59-1.58-1.571.038-5.724 3.613-9.278 3.577-3.553 7.757-5.16 9.338-3.59 1.581 1.571-.037 5.724-3.613 9.278"/><path fill="#006EC2" d="M26.472 34.909c6.017 5.977 11.072 12.178 14.847 18.176 8.337-9.766 6.372-21.983-2.32-30.62-8.694-8.636-20.991-10.59-30.82-2.306 6.037 3.75 12.278 8.773 18.293 14.75"/><path fill="#259AF4" d="M45.604 1.906c-4.76 1.305-9.896 3.702-14.257 8.035-4.853 4.822-12.784 14.01-15.6 19.189L32.29 45.567c5.212-2.798 14.46-10.678 19.314-15.5 4.361-4.333 6.774-9.436 8.088-14.164-2.89-1.245-5.767-3.166-8.334-5.717-2.568-2.55-4.502-5.409-5.754-8.28"/><g transform="translate(45.277 .38)"><mask id="b" fill="#fff"><use xlink:href="#a"/></mask><path fill="#006EC2" d="M15.659.29S8.557-.73.327 1.525c1.253 2.872 3.186 5.73 5.754 8.28 2.567 2.551 5.444 4.472 8.334 5.717C16.686 7.345 15.66.29 15.66.29" mask="url(#b)"/></g><path fill="#192E63" d="M42.602 29.337c-2.765 2.748-7.249 2.748-10.014 0a7.003 7.003 0 0 1 0-9.95c2.765-2.747 7.249-2.747 10.014 0a7.003 7.003 0 0 1 0 9.95"/><path fill="#59B7FF" d="M29.317 34.998a2.084 2.084 0 0 1-2.933 0 2.052 2.052 0 0 1 0-2.915 2.086 2.086 0 0 1 2.934 0c.81.805.81 2.11 0 2.915m19.309-19.184a2.085 2.085 0 0 1-2.934 0 2.052 2.052 0 0 1 0-2.915 2.085 2.085 0 0 1 2.934 0c.81.805.81 2.11 0 2.915"/><path fill="#F5F5F5" d="M40.812 27.559a4.57 4.57 0 0 1-6.434 0 4.5 4.5 0 0 1 0-6.393 4.572 4.572 0 0 1 6.435 0 4.5 4.5 0 0 1 0 6.393"/><path fill="#192E63" d="M25.658 46.485L14.821 35.719l3.089-4.44 12.216 12.138z"/></g></svg>