<svg xmlns="http://www.w3.org/2000/svg" xmlns:xlink="http://www.w3.org/1999/xlink" width="159" height="48" viewBox="0 0 159 48"><defs><circle id="a" cx="20.053" cy="20.053" r="20.053"/><path id="c" d="M0 13.912V.172h27.07v13.74z"/><path id="e" d="M0 6.049V.008h27.07v6.04z"/><circle id="g" cx="20.053" cy="20.053" r="20.053"/><circle id="i" cx="20.053" cy="20.053" r="20.053"/><path id="k" d="M.176.082h16.015v16.006H.176V.082z"/><circle id="m" cx="20.053" cy="20.053" r="20.053"/><circle id="o" cx="20.053" cy="20.053" r="20.053"/><path id="q" d="M.049.121l.186 5.623c.263.55 1.351 1.641 1.338 2.173L1.71 2.32C1.73 1.53 1.958.049.62.049a2.59 2.59 0 0 0-.571.072"/><path id="s" d="M.136 2.319l.096 5.598c-.01-.532.753-1.624.937-2.173.252-.753.444-1.529.572-2.317C1.892 2.503 2.432.49 1.3.121A1.302 1.302 0 0 0 .9.049C-.036.05.124 1.531.137 2.32"/><path id="u" d="M.115 5.726c0 .814-.111 1.587.335 2.287h15.102c.446-.7.334-1.473.334-2.287 0-3.143-3.33-5.69-7.885-5.69S.115 2.583.115 5.726"/></defs><g fill="none" fill-rule="evenodd"><g transform="translate(116.893 5)"><mask id="b" fill="#fff"><use xlink:href="#a"/></mask><use fill="#24CE92" xlink:href="#a"/><circle cx="20.053" cy="20.053" r="21.053" stroke="#FFF" stroke-width="2"/><g mask="url(#b)"><path fill="#391F0F" d="M19.678 7.337c-3.08 0-5.641.598-7.684 3.712C9.87 14.283 16.312 24.88 20.1 24.88c3.378 0 9.533-5.436 9.394-7.626-.139-2.19-.67-4.117-1.85-5.927-1.741-2.672-4.885-3.99-7.966-3.99"/><g transform="translate(6.291 26.906)"><mask id="d" fill="#fff"><use xlink:href="#c"/></mask><path fill="#BF7652" d="M24.719 8.85a5.356 5.356 0 0 0-1.74-.902L17.11 6.13c-.42-.127-.654-.511-.729-.941-.212-1.216-.187-4.422-.181-4.944a.072.072 0 0 0-.074-.073h-5.18a.072.072 0 0 0-.074.073c.005.517.027 3.663-.18 4.944-.07.43-.31.814-.73.94L4.075 7.954a5.129 5.129 0 0 0-1.519.74C.17 10.44.1 13.295.001 13.827a.073.073 0 0 0 .073.086h26.922a.073.073 0 0 0 .073-.086c-.096-.516-.13-3.222-2.35-4.977" mask="url(#d)"/></g><g transform="translate(6.291 34.77)"><mask id="f" fill="#fff"><use xlink:href="#e"/></mask><path fill="#F381C1" d="M.35 4.085C.09 4.979.047 5.718.001 5.962a.073.073 0 0 0 .073.087h26.922a.073.073 0 0 0 .073-.087c-.096-.516-.13-3.222-2.35-4.976a5.352 5.352 0 0 0-1.74-.902l-.245-.076a30.124 30.124 0 0 1-8.807 3.59C10.097 4.494 5.35 4.62.35 4.085" mask="url(#f)"/></g><path fill="#C58358" d="M19.827 9.644c-7.944-.31-8.059 7.217-7.94 9.691.086 1.796.797 4.408 1.18 5.704.22.745.618 1.432 1.19 1.973 2.073 1.965 5.57 2.633 5.57 2.633s3.496-.668 5.57-2.633a4.439 4.439 0 0 0 1.19-1.973c.382-1.296 1.093-3.908 1.18-5.704.118-2.474.002-10-7.94-9.691"/><path fill="#2C140B" d="M18.524 5.98c-2.109 0-3.817 1.416-3.817 3.162 0 .077.007.152.014.228-.496.246-.877.646-1.045 1.163-.379 1.164.463 2.475 1.88 2.93.67.215 1.35.197 1.92-.003.472 1.682 2.298 2.935 4.48 2.935.89 0 1.72-.209 2.424-.57a2.686 2.686 0 0 0 3.194 1.433 2.062 2.062 0 0 0 1.892.765c1.248.416 3.148.162 3.648-2.872-.458.61-1.22.868-1.858.808a2.03 2.03 0 0 0-.167-.778c.369-.357.599-.856.599-1.41 0-1.088-.889-1.97-1.984-1.97l-.024.001a2.51 2.51 0 0 0 .119-.765 2.541 2.541 0 0 0-3.247-2.433c.001-.033.005-.066.005-.099 0-1.657-1.425-3-3.183-3"/></g></g><g transform="translate(89.62 5)"><mask id="h" fill="#fff"><use xlink:href="#g"/></mask><use fill="#4EABF6" xlink:href="#g"/><circle cx="20.053" cy="20.053" r="21.053" stroke="#FFF" stroke-width="2"/><g mask="url(#h)"><path fill="#ECC3A8" d="M32.404 35.851a6.31 6.31 0 0 0-1.984-.943l-.756-.206.016-.005-5.953-1.983c-.48-.133-.747-.535-.832-.985-.242-1.272-.213-4.334-.207-4.88 0-.043-.037-.076-.085-.076h-6.475c-.047 0-.085.033-.085.076.006.54.03 3.54-.207 4.88-.08.451-.352.852-.831.985l-5.953 1.983.015.005-.774.211a6.09 6.09 0 0 0-1.732.775c-2.722 1.826-2.8 4.813-2.913 5.37-.01.047.03.09.083.09H35c.053 0 .093-.043.084-.09-.11-.54-.15-3.372-2.68-5.207"/><path fill="#24CE92" d="M32.404 35.851a6.31 6.31 0 0 0-1.984-.943l-.756-.206.016-.005-5.121-1.706c-1.602.623-3.355.97-5.193.97-1.84 0-3.592-.347-5.193-.97l-5.121 1.706.015.005-.774.211a6.09 6.09 0 0 0-1.732.775c-2.722 1.826-2.8 4.813-2.913 5.37-.01.047.03.09.083.09H35c.053 0 .093-.043.084-.09-.11-.54-.15-3.372-2.68-5.207"/><path fill="#F3C9A4" d="M19.294 9.119c-7.704-.262-7.817 7.3-7.702 9.793.085 1.815.505 4.454.88 5.764.215.752.606 2.01 1.165 2.558 1.503 1.47 3.37 2.772 4.524 3.224.208.082.664.118 1.133.115.47.003.925-.033 1.133-.115 1.154-.452 3.021-1.755 4.524-3.224.56-.547.95-1.806 1.165-2.558.375-1.31.795-3.949.88-5.764.115-2.492.002-10.055-7.702-9.793"/><path fill="#EFA167" d="M26.62 12.407a1.029 1.029 0 0 0-.134-.386 6.356 6.356 0 0 0-1.9-1.96c-.634-1.806-2.06-3.312-3.816-3.984-.215 1.33-1.044 2.03-1.98 2.621-3.043.052-5.375 1.45-6.51 3.323a1.03 1.03 0 0 0-.135.386c-.867 1.702-.53 3.677-.555 5.104.058.942.209 1.864.493 2.697.23-1.281.15-2.598.436-3.89.21-.947.507-1.874.885-2.764.746.304 1.59.55 2.499.731l.01.005c3.329 1.336 7.548-.133 7.548-.133l.002-.002c.681-.163 1.32-.365 1.899-.601.378.89.675 1.817.885 2.764.286 1.292.205 2.609.436 3.89.284-.833.435-1.755.492-2.697-.024-1.427.312-3.402-.554-5.104"/></g></g><g transform="translate(62.348 5)"><mask id="j" fill="#fff"><use xlink:href="#i"/></mask><use fill="#C17BC7" xlink:href="#i"/><circle cx="20.053" cy="20.053" r="21.053" stroke="#FFF" stroke-width="2"/><g mask="url(#j)"><path fill="#BF7652" d="M33.038 34.842a6.393 6.393 0 0 0-1.988-.924l-.757-.201.015-.004-5.965-1.941c-.48-.13-.748-.523-.834-.964-.242-1.245-.213-4.24-.207-4.775 0-.042-.037-.074-.084-.074h-6.489c-.047 0-.085.032-.085.074.005.529.03 3.464-.207 4.775-.08.442-.353.834-.834.964l-5.965 1.94.016.005-.776.207a6.172 6.172 0 0 0-1.735.758c-2.728 1.787-2.807 4.71-2.92 5.254-.01.047.03.089.084.089h31.332c.054 0 .094-.042.084-.089-.11-.528-.15-3.298-2.685-5.094"/><path fill="#F9B353" d="M33.038 34.842a6.393 6.393 0 0 0-1.988-.924l-.757-.201.015-.004-5.132-1.67c-1.604.61-3.36.949-5.203.949a14.6 14.6 0 0 1-5.203-.95l-5.132 1.67.016.005-.776.207a6.172 6.172 0 0 0-1.735.758c-2.728 1.787-2.807 4.71-2.92 5.254-.01.047.03.089.084.089h31.332c.054 0 .094-.042.084-.089-.11-.528-.15-3.298-2.685-5.094"/><path fill="#C58358" d="M19.901 8.683c-7.719-.256-7.833 7.144-7.717 9.583.085 1.776.506 4.359.882 5.64.216.737.607 1.968 1.167 2.503 1.506 1.438 3.376 2.713 4.533 3.155.208.08.665.116 1.135.113.47.003.927-.033 1.136-.113 1.157-.442 3.027-1.717 4.533-3.155.56-.535.951-1.766 1.167-2.503.376-1.281.797-3.864.882-5.64.115-2.439.002-9.839-7.718-9.583"/><path fill="#211208" d="M13.452 24.874c.216.59.501 1.2.853 1.535 1.506 1.438 3.376 2.713 4.533 3.155.208.08.665.116 1.135.113.47.003.927-.033 1.136-.113 1.156-.442 3.027-1.717 4.533-3.155.351-.336.636-.945.853-1.535l-6.522 3.199-6.521-3.199z"/><g transform="translate(11.79 4.339)"><mask id="l" fill="#fff"><use xlink:href="#k"/></mask><path fill="#211208" d="M9.16.082c-.013.915-.839 1.677-1.746 2.14-.908.462-1.938.727-2.821 1.224a4.76 4.76 0 0 0-.956.706c-1.118.503-1.998 1.2-2.57 2.003a.795.795 0 0 0-.136.328C.063 7.931.201 9.612.176 10.826c.058.801.124 2.318.409 3.026.23-1.09.434-2.942.721-4.041.21-.806.508-1.594.887-2.352 1.922-1.75 9.906-1.672 11.982 0 .38.758.676 1.546.887 2.352.287 1.099.311 3.099.542 4.189.285-.708.53-2.373.587-3.174-.024-1.214.114-2.895-.754-4.343a.8.8 0 0 0-.136-.328 5.494 5.494 0 0 0-1.11-1.137c.004-.383-.182-.805-.406-1.15C12.728 2.24 11.093.902 9.161.083" mask="url(#l)"/></g></g></g><g transform="translate(34.273 5)"><mask id="n" fill="#fff"><use xlink:href="#m"/></mask><use fill="#2CDACB" xlink:href="#m"/><circle cx="20.053" cy="20.053" r="21.053" stroke="#FFF" stroke-width="2"/><g mask="url(#n)"><path fill="#F9DAC5" d="M31.79 34.186a5.62 5.62 0 0 0-1.792-.884l-6.045-1.782c-.433-.124-.674-.5-.751-.922-.219-1.192-.193-4.334-.187-4.846 0-.04-.034-.07-.076-.07h-5.334c-.042 0-.077.03-.076.07.005.507.027 3.59-.187 4.846-.072.422-.318.798-.751.922l-6.062 1.787a5.397 5.397 0 0 0-1.564.726c-2.458 1.71-2.529 4.51-2.631 5.03-.009.044.027.085.075.085h27.726c.048 0 .084-.04.075-.085-.099-.506-.135-3.158-2.42-4.877"/><path fill="#F9DAC5" d="M31.79 34.186a5.62 5.62 0 0 0-1.792-.884l-6.045-1.782c-.433-.124-.674-.5-.751-.922-.219-1.192-.193-4.334-.187-4.846 0-.04-.034-.07-.076-.07h-5.334c-.042 0-.077.03-.076.07.005.507.027 3.59-.187 4.846-.072.422-.318.798-.751.922l-6.062 1.787a5.397 5.397 0 0 0-1.564.726c-2.458 1.71-2.529 4.51-2.631 5.03-.009.044.027.085.075.085h27.726c.048 0 .084-.04.075-.085-.099-.506-.135-3.158-2.42-4.877"/><path fill="#F381C1" d="M20.12 6.333c-3.173 0-6.411 1.292-8.204 3.91-1.215 1.775-1.763 3.938-1.905 6.084-.143 2.146.097 4.296.336 6.433.172 1.53.02 3.152-.802 4.467-.822 1.316-1.948 2.009-3.191 1.055.079 1.832.2 3.692 1.672 4.84 1.473 1.149 2.596 1.644 4.456 1.324h15.274c1.86.32 3.852-.175 5.324-1.324 1.472-1.148 1.594-3.008 1.673-4.84-1.243.954-3.238.26-4.06-1.055-.821-1.315-.974-2.937-.802-4.467.24-2.137.48-4.287.337-6.433-.143-2.146-.69-4.309-1.905-6.083-1.793-2.62-5.031-3.911-8.204-3.911"/><path fill="#F9B353" d="M10.529 33.307a5.407 5.407 0 0 0-1.564.726c-2.458 1.71-2.53 4.51-2.63 5.03-.01.045.026.085.074.085l13.863 1.976 13.863-1.976c.048 0 .084-.04.075-.085-.099-.506-.135-3.158-2.42-4.877a5.617 5.617 0 0 0-1.792-.884l-.668-.197c-2.772.921-5.834 1.437-9.058 1.437s-6.286-.516-9.058-1.437l-.685.202z"/><path fill="#F3E0D3" d="M23.202 30.598c-.218-1.192-.193-4.334-.187-4.846 0-.04-.034-.07-.076-.07h-5.334c-.043 0-.077.03-.076.07.005.507.026 3.59-.187 4.846-.072.422-.318.798-.751.922l-5.377 1.585c2.772.921 5.834 1.437 9.058 1.437s6.286-.516 9.057-1.437l-5.376-1.585c-.433-.124-.674-.5-.751-.922"/><path fill="#FFEBDE" d="M20.272 8.593c-8.18-.303-8.299 7.073-8.177 9.499.089 1.76.82 4.32 1.215 5.59.227.73.637 1.403 1.226 1.934 2.135 1.926 5.736 2.58 5.736 2.58s3.601-.654 5.736-2.58a4.317 4.317 0 0 0 1.226-1.934c.394-1.27 1.126-3.83 1.215-5.59.122-2.426.003-9.802-8.177-9.5"/></g></g><g transform="translate(7 5)"><mask id="p" fill="#fff"><use xlink:href="#o"/></mask><use fill="#F9B353" xlink:href="#o"/><circle cx="20.053" cy="20.053" r="21.053" stroke="#FFF" stroke-width="2"/><g mask="url(#p)"><path fill="#D8D8D8" d="M20.96 3.802a1.297 1.297 0 0 0-.533.12c-.224.058-.42.17-.588.335-.118.1-.213.216-.288.345a1.316 1.316 0 0 0-.288-.345 1.287 1.287 0 0 0-.588-.335 1.299 1.299 0 0 0-.534-.12h-.026c-.04 0-.081.003-.122.007-.438.046-.888.216-1.178.565l-.257.37-.01.025a1.625 1.625 0 0 0-.835-.239c-.98 0-1.889.534-2.171 1.466a2.754 2.754 0 0 0-1.01-.193c-1.33 0-2.4 1.306-2.334 2.587.003.067.014.131.022.195-1.12.095-2.108.78-2.244 2.001-.047.427.057.892.27 1.307h-.021c-.008-.001-.016-.002-.024-.001H8.05a1.263 1.263 0 0 0-.615.161 1.257 1.257 0 0 0-.53.364 1.263 1.263 0 0 0-.336.575 1.243 1.243 0 0 0-.114.642c.036.423.193.86.524 1.146l.162.115a2.17 2.17 0 0 0-.255.197l-.346.424a2.032 2.032 0 0 0-.304 1.022v.152c-.016.27.033.524.146.763.073.257.205.482.398.675.049.058.102.11.157.158l-.321.407c-.193.328-.29.681-.294 1.06v.152c-.012.279.043.54.165.785.008.028.02.054.03.081-.034.014-.068.028-.102.045-.351.187-.668.486-.784.88a1.837 1.837 0 0 0-.078.504v.023c.002.21.045.42.142.614l.151.303c.178.357.498.655.878.786.157.06.317.083.48.074.025.111.065.218.126.318.067.175.175.322.324.442.136.127.292.213.468.258a1.059 1.059 0 0 0 .655.069c-.16.266-.255.564-.255.888v.152a1.3 1.3 0 0 0 .154.668c.07.218.194.405.367.56a1.3 1.3 0 0 0 .555.347c.2.102.415.148.645.14l.456-.064c.046-.013.088-.031.132-.047.008.15.037.297.09.44.05.252.159.479.327.68.156.218.355.382.595.491.222.153.47.24.744.26l.513-.01c.146-.022.285-.062.419-.114.053.116.122.224.21.323.14.185.314.322.522.414.196.129.414.2.653.215l.467-.017c.213-.037.409-.112.59-.22.391.646 1.076 1.113 2.05 1.113.654 0 1.165-.212 1.54-.546.375.334.886.546 1.541.546.973 0 1.658-.467 2.05-1.113.18.108.376.183.589.22l.467.017a1.31 1.31 0 0 0 .653-.215c.208-.092.382-.23.522-.414.088-.1.157-.207.21-.323.134.052.273.092.42.115l.512.01c.274-.022.522-.108.744-.26.24-.11.438-.274.595-.492a1.49 1.49 0 0 0 .326-.68c.054-.143.082-.29.091-.44.044.016.086.034.132.047l.456.063c.23.009.444-.037.645-.14.212-.066.397-.181.555-.345a1.28 1.28 0 0 0 .367-.56c.11-.207.162-.43.154-.67v-.15c0-.325-.095-.623-.255-.89a1.06 1.06 0 0 0 .655-.069 1.05 1.05 0 0 0 .468-.257c.148-.12.257-.267.324-.442.06-.1.101-.207.127-.318.162.009.322-.014.479-.074.38-.13.7-.43.878-.786l.151-.303c.097-.193.14-.401.142-.611v-.028a1.877 1.877 0 0 0-.078-.503c-.116-.393-.433-.692-.784-.879a1.147 1.147 0 0 0-.102-.045c.01-.027.022-.053.03-.081.122-.245.177-.506.165-.785v-.151a2.096 2.096 0 0 0-.294-1.06l-.32-.408c.054-.048.107-.1.156-.158.193-.193.325-.418.398-.675a1.54 1.54 0 0 0 .146-.763v-.152a2.034 2.034 0 0 0-.303-1.022l-.347-.424a2.096 2.096 0 0 0-.255-.197l.162-.115c.331-.285.488-.723.524-1.146a1.25 1.25 0 0 0-.114-.642 1.265 1.265 0 0 0-.337-.575 1.258 1.258 0 0 0-.53-.364 1.261 1.261 0 0 0-.614-.161h-.196c.212-.414.317-.879.27-1.306-.136-1.22-1.123-1.906-2.244-2 .009-.065.019-.129.022-.196.065-1.281-1.003-2.587-2.333-2.587-.354 0-.696.069-1.011.193-.282-.932-1.19-1.466-2.171-1.466-.303 0-.585.09-.834.239l-.011-.026-.257-.369c-.29-.349-.74-.52-1.178-.565a1.398 1.398 0 0 0-.122-.007h-.026z"/><path fill="#2C140B" d="M20.96 3.802a1.297 1.297 0 0 0-.533.12c-.224.058-.42.17-.588.335-.118.1-.213.216-.288.345a1.316 1.316 0 0 0-.288-.345 1.287 1.287 0 0 0-.588-.335 1.299 1.299 0 0 0-.534-.12h-.026c-.04 0-.081.003-.122.007-.438.046-.888.216-1.178.565l-.257.37-.01.025a1.625 1.625 0 0 0-.835-.239c-.98 0-1.889.534-2.171 1.466a2.754 2.754 0 0 0-1.01-.193c-1.33 0-2.4 1.306-2.334 2.587.003.067.014.131.022.195-1.12.095-2.108.78-2.244 2.001-.047.427.057.892.27 1.307h-.021c-.008-.001-.016-.002-.024-.001H8.05a1.263 1.263 0 0 0-.615.161 1.257 1.257 0 0 0-.53.364 1.263 1.263 0 0 0-.336.575 1.243 1.243 0 0 0-.114.642c.036.423.193.86.524 1.146l.162.115a2.17 2.17 0 0 0-.255.197l-.346.424a2.032 2.032 0 0 0-.304 1.022v.152c-.016.27.033.524.146.763.073.257.205.482.398.675.049.058.102.11.157.158l-.321.407c-.193.328-.29.681-.294 1.06v.152c-.012.279.043.54.165.785.008.028.02.054.03.081-.034.014-.068.028-.102.045-.351.187-.668.486-.784.88a1.837 1.837 0 0 0-.078.504v.023c.002.21.045.42.142.614l.151.303c.178.357.498.655.878.786.157.06.317.083.48.074.025.111.065.218.126.318.067.175.175.322.324.442.136.127.292.213.468.258a1.059 1.059 0 0 0 .655.069c-.16.266-.255.564-.255.888v.152a1.3 1.3 0 0 0 .154.668c.07.218.194.405.367.56a1.3 1.3 0 0 0 .555.347c.2.102.415.148.645.14l.456-.064c.046-.013.088-.031.132-.047.008.15.037.297.09.44.05.252.159.479.327.68.156.218.355.382.595.491.222.153.47.24.744.26l.513-.01c.146-.022.285-.062.419-.114.053.116.122.224.21.323.14.185.314.322.522.414.196.129.414.2.653.215l.467-.017c.213-.037.409-.112.59-.22.391.646 1.076 1.113 2.05 1.113.654 0 1.165-.212 1.54-.546.375.334.886.546 1.541.546.973 0 1.658-.467 2.05-1.113.18.108.376.183.589.22l.467.017a1.31 1.31 0 0 0 .653-.215c.208-.092.382-.23.522-.414.088-.1.157-.207.21-.323.134.052.273.092.42.115l.512.01c.274-.022.522-.108.744-.26.24-.11.438-.274.595-.492a1.49 1.49 0 0 0 .326-.68c.054-.143.082-.29.091-.44.044.016.086.034.132.047l.456.063c.23.009.444-.037.645-.14.212-.066.397-.181.555-.345a1.28 1.28 0 0 0 .367-.56c.11-.207.162-.43.154-.67v-.15c0-.325-.095-.623-.255-.89a1.06 1.06 0 0 0 .655-.069 1.05 1.05 0 0 0 .468-.257c.148-.12.257-.267.324-.442.06-.1.101-.207.127-.318.162.009.322-.014.479-.074.38-.13.7-.43.878-.786l.151-.303c.097-.193.14-.401.142-.611v-.028a1.877 1.877 0 0 0-.078-.503c-.116-.393-.433-.692-.784-.879a1.147 1.147 0 0 0-.102-.045c.01-.027.022-.053.03-.081.122-.245.177-.506.165-.785v-.151a2.096 2.096 0 0 0-.294-1.06l-.32-.408c.054-.048.107-.1.156-.158.193-.193.325-.418.398-.675a1.54 1.54 0 0 0 .146-.763v-.152a2.034 2.034 0 0 0-.303-1.022l-.347-.424a2.096 2.096 0 0 0-.255-.197l.162-.115c.331-.285.488-.723.524-1.146a1.25 1.25 0 0 0-.114-.642 1.265 1.265 0 0 0-.337-.575 1.258 1.258 0 0 0-.53-.364 1.261 1.261 0 0 0-.614-.161h-.196c.212-.414.317-.879.27-1.306-.136-1.22-1.123-1.906-2.244-2 .009-.065.019-.129.022-.196.065-1.281-1.003-2.587-2.333-2.587-.354 0-.696.069-1.011.193-.282-.932-1.19-1.466-2.171-1.466-.303 0-.585.09-.834.239l-.011-.026-.257-.369c-.29-.349-.74-.52-1.178-.565a1.398 1.398 0 0 0-.122-.007h-.026z"/><path fill="#C17BC7" d="M12.398 33.881l1.057-.33v3.313l6.096 1.729 6.096-1.729v-3.312l1.057.33 1.686.526a4.998 4.998 0 0 1 1.628.85c2.077 1.656 2.11 4.209 2.2 4.696a.07.07 0 0 1-.069.081H6.953a.07.07 0 0 1-.069-.081c.093-.502.157-3.196 2.392-4.842a4.794 4.794 0 0 1 1.42-.7l1.702-.53z"/><path fill="#A26841" d="M19.551 38.593l6.096-1.729v-3.312l-2.75-.86c-.394-.119-.613-.481-.683-.887-.199-1.148-.175-4.172-.17-4.664a.068.068 0 0 0-.07-.069h-4.847a.07.07 0 0 0-.07.069c.005.487.025 3.456-.169 4.664-.065.407-.289.768-.682.888l-2.751.859v3.312l6.096 1.729z"/><path fill="#AD714A" d="M19.551 10.623c-7.434-.292-7.542 6.81-7.43 9.143.08 1.695.745 4.159 1.103 5.382.206.702.58 1.35 1.114 1.862 1.94 1.853 5.213 2.483 5.213 2.483s3.273-.63 5.213-2.483a4.194 4.194 0 0 0 1.114-1.862c.358-1.223 1.023-3.687 1.104-5.382.11-2.334.003-9.435-7.431-9.143"/><g transform="translate(11.578 15.744)"><mask id="r" fill="#fff"><use xlink:href="#q"/></mask><path d="M.049.121l.186 5.623c.263.55 1.351 1.641 1.338 2.173L1.71 2.32C1.73 1.53 1.958.049.62.049a2.59 2.59 0 0 0-.571.072" mask="url(#r)"/></g><g transform="translate(25.637 15.744)"><mask id="t" fill="#fff"><use xlink:href="#s"/></mask><path d="M.136 2.319l.096 5.598c-.01-.532.753-1.624.937-2.173.252-.753.444-1.529.572-2.317C1.892 2.503 2.432.49 1.3.121A1.302 1.302 0 0 0 .9.049C-.036.05.124 1.531.137 2.32" mask="url(#t)"/></g><g transform="translate(11.578 9.723)"><mask id="v" fill="#fff"><use xlink:href="#u"/></mask><path d="M.115 5.726c0 .814-.111 1.587.335 2.287h15.102c.446-.7.334-1.473.334-2.287 0-3.143-3.33-5.69-7.885-5.69S.115 2.583.115 5.726" mask="url(#v)"/></g></g></g><path fill="#53D483" d="M20 10c0 5.523-4.477 10-10 10S0 15.523 0 10 4.477 0 10 0s10 4.477 10 10"/><path fill="#FFF" stroke="#FFF" stroke-width=".833" d="M13.6 9.6h-3.2V6.4c0-.24-.16-.4-.4-.4-.24 0-.4.16-.4.4v3.2H6.4c-.24 0-.4.16-.4.4 0 .24.16.4.4.4h3.2v3.2c0 .24.16.4.4.4.24 0 .4-.16.4-.4v-3.2h3.2c.24 0 .4-.16.4-.4 0-.24-.16-.4-.4-.4"/></g></svg>