<svg xmlns="http://www.w3.org/2000/svg" xmlns:xlink="http://www.w3.org/1999/xlink" width="130" height="87" viewBox="0 0 130 87"><defs><ellipse id="a" cx="12.591" cy="12.593" rx="8.394" ry="8.395"/><ellipse id="c" cx="12.591" cy="12.593" rx="8.394" ry="8.395"/><ellipse id="e" cx="8.394" cy="8.395" rx="8.394" ry="8.395"/><path id="g" d="M0 5.793V.072h11.194v5.72z"/><path id="i" d="M0 2.519V.003h11.194V2.52z"/><ellipse id="k" cx="12.591" cy="12.593" rx="8.394" ry="8.395"/><ellipse id="m" cx="8.394" cy="8.395" rx="8.394" ry="8.395"/><path id="o" d="M.074.035h6.75v6.74H.075V.035z"/><ellipse id="q" cx="12.591" cy="12.593" rx="8.394" ry="8.395"/><ellipse id="s" cx="8.394" cy="8.395" rx="8.394" ry="8.395"/><ellipse id="u" cx="12.591" cy="12.593" rx="8.394" ry="8.395"/><ellipse id="w" cx="12.591" cy="12.593" rx="8.394" ry="8.395"/><ellipse id="y" cx="8.394" cy="8.395" rx="8.394" ry="8.395"/><ellipse id="A" cx="12.591" cy="12.593" rx="8.394" ry="8.395"/><ellipse id="C" cx="8.394" cy="8.395" rx="8.394" ry="8.395"/><path id="E" d="M.045.058h6.75v7.013H.045V.058z"/><ellipse id="G" cx="8.394" cy="8.395" rx="8.394" ry="8.395"/><path id="I" d="M.02.05l.078 2.353c.11.23.565.686.56.909L.715.97C.723.64.818.02.259.02.189.02.11.03.02.05"/><path id="K" d="M.057.97l.04 2.342c-.004-.223.315-.68.391-.91a6.14 6.14 0 0 0 .24-.968C.79 1.047 1.016.204.543.05A.544.544 0 0 0 .376.02c-.392 0-.325.62-.32.95"/><path id="M" d="M.048 2.395c0 .34-.046.664.14.957H6.5c.186-.293.14-.616.14-.957 0-1.314-1.393-2.38-3.296-2.38C1.44.015.048 1.081.048 2.395"/></defs><g fill="none" fill-rule="evenodd"><g transform="translate(13 12)"><rect width="25.182" height="34.421" fill="#FFF" stroke="#EEE" rx="1.68"/><path stroke="#E2E2E2" stroke-linecap="round" stroke-linejoin="round" stroke-width="1.68" d="M7.135 27.285h11.751"/><mask id="b" fill="#fff"><use xlink:href="#a"/></mask><use fill="#C17BC7" xlink:href="#a"/><g mask="url(#b)"><path fill="#F9DAC5" d="M17.104 18.801a2.21 2.21 0 0 0-.719-.375l-2.427-.757c-.174-.053-.27-.213-.302-.392-.087-.506-.077-1.841-.075-2.059a.03.03 0 0 0-.03-.03h-2.142a.03.03 0 0 0-.03.03c.001.216.01 1.526-.076 2.06-.028.178-.127.338-.301.39l-2.434.76c-.224.07-.439.17-.628.308-.987.727-1.016 1.916-1.057 2.137a.03.03 0 0 0 .03.036h11.133a.03.03 0 0 0 .03-.036c-.04-.214-.054-1.341-.972-2.072"/><path fill="#F9DAC5" d="M17.104 18.801a2.21 2.21 0 0 0-.719-.375l-2.427-.757c-.174-.053-.27-.213-.302-.392-.087-.506-.077-1.841-.075-2.059a.03.03 0 0 0-.03-.03h-2.142a.03.03 0 0 0-.03.03c.001.216.01 1.526-.076 2.06-.028.178-.127.338-.301.39l-2.434.76c-.224.07-.439.17-.628.308-.987.727-1.016 1.916-1.057 2.137a.03.03 0 0 0 .03.036h11.133a.03.03 0 0 0 .03-.036c-.04-.214-.054-1.341-.972-2.072"/><path fill="#E87E49" d="M12.419 6.968c-1.274 0-2.574.55-3.294 1.662-.488.754-.708 1.673-.765 2.584-.058.912.039 1.825.135 2.733.069.65.008 1.34-.322 1.898-.33.559-.782.853-1.281.448.031.779.08 1.569.671 2.056.591.488 1.042.699 1.789.563h6.133a2.653 2.653 0 0 0 2.138-.563c.59-.487.64-1.277.671-2.056-.499.405-1.3.11-1.63-.448-.33-.559-.39-1.248-.322-1.898.096-.908.193-1.821.135-2.733-.057-.911-.277-1.83-.765-2.584-.72-1.113-2.02-1.662-3.293-1.662"/><path fill="#2CDACB" d="M8.568 18.428c-.224.07-.44.17-.628.308-.987.727-1.016 1.916-1.056 2.137a.03.03 0 0 0 .03.036l5.566.84 5.566-.84a.03.03 0 0 0 .03-.036c-.04-.214-.054-1.341-.972-2.072a2.208 2.208 0 0 0-.719-.375l-.268-.084c-1.113.391-2.343.61-3.637.61-1.295 0-2.524-.219-3.637-.61l-.275.086z"/><path fill="#F2CBB1" d="M13.656 17.277c-.087-.506-.077-1.841-.075-2.059a.03.03 0 0 0-.03-.03h-2.142a.03.03 0 0 0-.03.03c.001.216.01 1.526-.076 2.06-.028.178-.127.338-.301.39l-2.159.674c1.113.392 2.342.61 3.637.61 1.294 0 2.524-.218 3.637-.61l-2.16-.673c-.173-.053-.27-.213-.3-.392"/><path fill="#F9DAC5" d="M12.48 7.928c-3.285-.128-3.332 3.006-3.283 4.036.035.748.33 1.835.488 2.375.09.31.255.596.492.822.857.818 2.303 1.096 2.303 1.096s1.446-.278 2.303-1.096a1.85 1.85 0 0 0 .492-.822c.159-.54.452-1.627.488-2.375.049-1.03.001-4.164-3.283-4.036"/></g></g><g transform="translate(43.218 12)"><rect width="25.182" height="34.421" fill="#FFF" stroke="#EEE" rx="1.68"/><path stroke="#E2E2E2" stroke-linecap="round" stroke-linejoin="round" stroke-width="1.68" d="M7.135 27.285h11.751"/><mask id="d" fill="#fff"><use xlink:href="#c"/></mask><use fill="#C17BC7" xlink:href="#c"/><g mask="url(#d)"><path fill="#F9DAC5" d="M17.104 18.801a2.21 2.21 0 0 0-.719-.375l-2.427-.757c-.174-.053-.27-.213-.302-.392-.087-.506-.077-1.841-.075-2.059a.03.03 0 0 0-.03-.03h-2.142a.03.03 0 0 0-.03.03c.001.216.01 1.526-.076 2.06-.028.178-.127.338-.301.39l-2.434.76c-.224.07-.439.17-.628.308-.987.727-1.016 1.916-1.057 2.137a.03.03 0 0 0 .03.036h11.133a.03.03 0 0 0 .03-.036c-.04-.214-.054-1.341-.972-2.072"/><path fill="#F9DAC5" d="M17.104 18.801a2.21 2.21 0 0 0-.719-.375l-2.427-.757c-.174-.053-.27-.213-.302-.392-.087-.506-.077-1.841-.075-2.059a.03.03 0 0 0-.03-.03h-2.142a.03.03 0 0 0-.03.03c.001.216.01 1.526-.076 2.06-.028.178-.127.338-.301.39l-2.434.76c-.224.07-.439.17-.628.308-.987.727-1.016 1.916-1.057 2.137a.03.03 0 0 0 .03.036h11.133a.03.03 0 0 0 .03-.036c-.04-.214-.054-1.341-.972-2.072"/><path fill="#E87E49" d="M12.419 6.968c-1.274 0-2.574.55-3.294 1.662-.488.754-.708 1.673-.765 2.584-.058.912.039 1.825.135 2.733.069.65.008 1.34-.322 1.898-.33.559-.782.853-1.281.448.031.779.08 1.569.671 2.056.591.488 1.042.699 1.789.563h6.133a2.653 2.653 0 0 0 2.138-.563c.59-.487.64-1.277.671-2.056-.499.405-1.3.11-1.63-.448-.33-.559-.39-1.248-.322-1.898.096-.908.193-1.821.135-2.733-.057-.911-.277-1.83-.765-2.584-.72-1.113-2.02-1.662-3.293-1.662"/><path fill="#2CDACB" d="M8.568 18.428c-.224.07-.44.17-.628.308-.987.727-1.016 1.916-1.056 2.137a.03.03 0 0 0 .03.036l5.566.84 5.566-.84a.03.03 0 0 0 .03-.036c-.04-.214-.054-1.341-.972-2.072a2.208 2.208 0 0 0-.719-.375l-.268-.084c-1.113.391-2.343.61-3.637.61-1.295 0-2.524-.219-3.637-.61l-.275.086z"/><path fill="#F2CBB1" d="M13.656 17.277c-.087-.506-.077-1.841-.075-2.059a.03.03 0 0 0-.03-.03h-2.142a.03.03 0 0 0-.03.03c.001.216.01 1.526-.076 2.06-.028.178-.127.338-.301.39l-2.159.674c1.113.392 2.342.61 3.637.61 1.294 0 2.524-.218 3.637-.61l-2.16-.673c-.173-.053-.27-.213-.3-.392"/><path fill="#F9DAC5" d="M12.48 7.928c-3.285-.128-3.332 3.006-3.283 4.036.035.748.33 1.835.488 2.375.09.31.255.596.492.822.857.818 2.303 1.096 2.303 1.096s1.446-.278 2.303-1.096a1.85 1.85 0 0 0 .492-.822c.159-.54.452-1.627.488-2.375.049-1.03.001-4.164-3.283-4.036"/></g></g><g transform="translate(47.415 16.198)"><mask id="f" fill="#fff"><use xlink:href="#e"/></mask><use fill="#24CE92" xlink:href="#e"/><g mask="url(#f)"><path fill="#391F0F" d="M8.306 3.114c-1.274 0-2.333.248-3.178 1.545-.878 1.347 1.785 5.76 3.352 5.76 1.397 0 3.942-2.264 3.884-3.176-.057-.911-.277-1.714-.765-2.468-.72-1.112-2.02-1.661-3.293-1.661"/><g transform="translate(2.77 11.262)"><mask id="h" fill="#fff"><use xlink:href="#g"/></mask><path fill="#BF7652" d="M10.221 3.685a2.21 2.21 0 0 0-.719-.376l-2.427-.757c-.174-.052-.27-.212-.302-.391C6.686 1.654 6.696.319 6.698.1a.03.03 0 0 0-.03-.03H4.526a.03.03 0 0 0-.03.03c.001.216.01 1.526-.076 2.06-.028.179-.127.339-.301.391l-2.434.76c-.224.07-.439.169-.628.308C.07 4.347.041 5.536.001 5.757a.03.03 0 0 0 .03.036h11.132a.03.03 0 0 0 .03-.036c-.04-.215-.054-1.342-.972-2.072" mask="url(#h)"/></g><g transform="translate(2.77 14.536)"><mask id="j" fill="#fff"><use xlink:href="#i"/></mask><path fill="#F381C1" d="M.145 1.7c-.108.373-.126.68-.144.783a.03.03 0 0 0 .03.036h11.132a.03.03 0 0 0 .03-.036c-.04-.215-.054-1.342-.972-2.072a2.208 2.208 0 0 0-.719-.376L9.401.003a12.408 12.408 0 0 1-3.642 1.495c-1.584.373-3.546.426-5.614.203" mask="url(#j)"/></g><path fill="#C58358" d="M8.367 4.074c-3.285-.129-3.332 3.005-3.283 4.035.035.748.33 1.836.488 2.375.09.31.255.597.492.822.857.818 2.303 1.096 2.303 1.096s1.446-.278 2.303-1.096a1.85 1.85 0 0 0 .492-.822c.159-.54.452-1.627.488-2.375.049-1.03.001-4.164-3.283-4.035"/><path fill="#2C140B" d="M7.828 2.549c-.872 0-1.578.59-1.578 1.316 0 .032.003.064.006.095a.83.83 0 0 0-.433.484c-.156.485.192 1.031.778 1.22.277.09.558.082.794-.001.195.7.95 1.222 1.852 1.222.368 0 .712-.087 1.003-.237a1.11 1.11 0 0 0 1.32.597.85.85 0 0 0 .783.318c.516.173 1.302.067 1.508-1.196a.875.875 0 0 1-.768.337.85.85 0 0 0-.07-.324.82.82 0 0 0-.573-1.408h-.009a1.053 1.053 0 0 0-1.293-1.331l.002-.041c0-.69-.59-1.25-1.316-1.25"/></g></g><g transform="translate(73.436 12)"><rect width="25.182" height="34.421" fill="#FFF" stroke="#EEE" rx="1.68"/><path stroke="#E2E2E2" stroke-linecap="round" stroke-linejoin="round" stroke-width="1.68" d="M7.135 27.285h11.751"/><mask id="l" fill="#fff"><use xlink:href="#k"/></mask><use fill="#C17BC7" xlink:href="#k"/><g mask="url(#l)"><path fill="#F9DAC5" d="M17.104 18.801a2.21 2.21 0 0 0-.719-.375l-2.427-.757c-.174-.053-.27-.213-.302-.392-.087-.506-.077-1.841-.075-2.059a.03.03 0 0 0-.03-.03h-2.142a.03.03 0 0 0-.03.03c.001.216.01 1.526-.076 2.06-.028.178-.127.338-.301.39l-2.434.76c-.224.07-.439.17-.628.308-.987.727-1.016 1.916-1.057 2.137a.03.03 0 0 0 .03.036h11.133a.03.03 0 0 0 .03-.036c-.04-.214-.054-1.341-.972-2.072"/><path fill="#F9DAC5" d="M17.104 18.801a2.21 2.21 0 0 0-.719-.375l-2.427-.757c-.174-.053-.27-.213-.302-.392-.087-.506-.077-1.841-.075-2.059a.03.03 0 0 0-.03-.03h-2.142a.03.03 0 0 0-.03.03c.001.216.01 1.526-.076 2.06-.028.178-.127.338-.301.39l-2.434.76c-.224.07-.439.17-.628.308-.987.727-1.016 1.916-1.057 2.137a.03.03 0 0 0 .03.036h11.133a.03.03 0 0 0 .03-.036c-.04-.214-.054-1.341-.972-2.072"/><path fill="#E87E49" d="M12.419 6.968c-1.274 0-2.574.55-3.294 1.662-.488.754-.708 1.673-.765 2.584-.058.912.039 1.825.135 2.733.069.65.008 1.34-.322 1.898-.33.559-.782.853-1.281.448.031.779.08 1.569.671 2.056.591.488 1.042.699 1.789.563h6.133a2.653 2.653 0 0 0 2.138-.563c.59-.487.64-1.277.671-2.056-.499.405-1.3.11-1.63-.448-.33-.559-.39-1.248-.322-1.898.096-.908.193-1.821.135-2.733-.057-.911-.277-1.83-.765-2.584-.72-1.113-2.02-1.662-3.293-1.662"/><path fill="#2CDACB" d="M8.568 18.428c-.224.07-.44.17-.628.308-.987.727-1.016 1.916-1.056 2.137a.03.03 0 0 0 .03.036l5.566.84 5.566-.84a.03.03 0 0 0 .03-.036c-.04-.214-.054-1.341-.972-2.072a2.208 2.208 0 0 0-.719-.375l-.268-.084c-1.113.391-2.343.61-3.637.61-1.295 0-2.524-.219-3.637-.61l-.275.086z"/><path fill="#F2CBB1" d="M13.656 17.277c-.087-.506-.077-1.841-.075-2.059a.03.03 0 0 0-.03-.03h-2.142a.03.03 0 0 0-.03.03c.001.216.01 1.526-.076 2.06-.028.178-.127.338-.301.39l-2.159.674c1.113.392 2.342.61 3.637.61 1.294 0 2.524-.218 3.637-.61l-2.16-.673c-.173-.053-.27-.213-.3-.392"/><path fill="#F9DAC5" d="M12.48 7.928c-3.285-.128-3.332 3.006-3.283 4.036.035.748.33 1.835.488 2.375.09.31.255.596.492.822.857.818 2.303 1.096 2.303 1.096s1.446-.278 2.303-1.096a1.85 1.85 0 0 0 .492-.822c.159-.54.452-1.627.488-2.375.049-1.03.001-4.164-3.283-4.036"/></g></g><g transform="translate(77.633 16.198)"><mask id="n" fill="#fff"><use xlink:href="#m"/></mask><use fill="#2CDACB" xlink:href="#m"/><g mask="url(#n)"><path fill="#BF7652" d="M13.825 14.826a2.696 2.696 0 0 0-.838-.39l-.32-.084.007-.002-2.514-.817c-.203-.055-.315-.22-.351-.406-.102-.524-.09-1.786-.088-2.011 0-.018-.016-.031-.035-.031H6.95c-.02 0-.036.013-.036.03.002.224.012 1.46-.088 2.012a.49.49 0 0 1-.35.406l-2.515.817.006.002-.327.087c-.26.072-.511.175-.731.32-1.15.752-1.183 1.983-1.23 2.212-.005.02.012.037.035.037H14.92c.023 0 .04-.018.036-.037-.047-.222-.064-1.39-1.132-2.145"/><path fill="#F9B353" d="M13.825 14.826a2.696 2.696 0 0 0-.838-.39l-.32-.084.007-.002-2.163-.703c-.676.257-1.416.4-2.193.4a6.166 6.166 0 0 1-2.193-.4l-2.163.703.006.002-.327.087c-.26.072-.511.175-.731.32-1.15.752-1.183 1.983-1.23 2.212-.005.02.012.037.035.037H14.92c.023 0 .04-.018.036-.037-.047-.222-.064-1.39-1.132-2.145"/><path fill="#C58358" d="M8.288 3.81c-3.254-.108-3.302 3.008-3.253 4.035.036.748.213 1.836.372 2.375.09.31.255.829.492 1.054.634.606 1.423 1.143 1.91 1.33.088.033.28.048.479.047.198 0 .39-.014.478-.048.488-.186 1.276-.723 1.911-1.329.236-.225.401-.743.492-1.054.158-.54.336-1.627.372-2.375.048-1.027 0-4.143-3.253-4.035"/><path fill="#211208" d="M5.57 10.628c.09.248.21.505.359.646.634.606 1.423 1.143 1.91 1.33.088.033.28.048.48.047.197 0 .39-.014.478-.048.487-.186 1.276-.723 1.91-1.329.148-.14.268-.398.36-.646l-2.749 1.347-2.749-1.347z"/><g transform="translate(4.868 1.98)"><mask id="p" fill="#fff"><use xlink:href="#o"/></mask><path fill="#211208" d="M3.861.035c-.005.443-.354.812-.736 1.036-.383.224-.817.352-1.189.593a2.03 2.03 0 0 0-.403.342 2.743 2.743 0 0 0-1.083.97.419.419 0 0 0-.057.159C.027 3.836.085 4.65.074 5.238.1 5.626.127 6.36.247 6.704.344 6.176.43 5.279.55 4.746a6.43 6.43 0 0 1 .373-1.139c.81-.848 4.176-.81 5.05 0 .16.367.286.75.375 1.14.12.532.13 1.5.228 2.028.12-.343.224-1.149.248-1.537-.01-.588.048-1.402-.318-2.103a.421.421 0 0 0-.057-.16 2.531 2.531 0 0 0-.468-.55c.001-.186-.077-.39-.171-.556A4.538 4.538 0 0 0 3.86.035" mask="url(#p)"/></g></g></g><g transform="translate(103.654 12)"><rect width="25.182" height="34.421" fill="#FFF" stroke="#EEE" rx="1.68"/><path stroke="#E2E2E2" stroke-linecap="round" stroke-linejoin="round" stroke-width="1.68" d="M7.135 27.285h11.751"/><mask id="r" fill="#fff"><use xlink:href="#q"/></mask><use fill="#C17BC7" xlink:href="#q"/><g mask="url(#r)"><path fill="#F9DAC5" d="M17.104 18.801a2.21 2.21 0 0 0-.719-.375l-2.427-.757c-.174-.053-.27-.213-.302-.392-.087-.506-.077-1.841-.075-2.059a.03.03 0 0 0-.03-.03h-2.142a.03.03 0 0 0-.03.03c.001.216.01 1.526-.076 2.06-.028.178-.127.338-.301.39l-2.434.76c-.224.07-.439.17-.628.308-.987.727-1.016 1.916-1.057 2.137a.03.03 0 0 0 .03.036h11.133a.03.03 0 0 0 .03-.036c-.04-.214-.054-1.341-.972-2.072"/><path fill="#F9DAC5" d="M17.104 18.801a2.21 2.21 0 0 0-.719-.375l-2.427-.757c-.174-.053-.27-.213-.302-.392-.087-.506-.077-1.841-.075-2.059a.03.03 0 0 0-.03-.03h-2.142a.03.03 0 0 0-.03.03c.001.216.01 1.526-.076 2.06-.028.178-.127.338-.301.39l-2.434.76c-.224.07-.439.17-.628.308-.987.727-1.016 1.916-1.057 2.137a.03.03 0 0 0 .03.036h11.133a.03.03 0 0 0 .03-.036c-.04-.214-.054-1.341-.972-2.072"/><path fill="#E87E49" d="M12.419 6.968c-1.274 0-2.574.55-3.294 1.662-.488.754-.708 1.673-.765 2.584-.058.912.039 1.825.135 2.733.069.65.008 1.34-.322 1.898-.33.559-.782.853-1.281.448.031.779.08 1.569.671 2.056.591.488 1.042.699 1.789.563h6.133a2.653 2.653 0 0 0 2.138-.563c.59-.487.64-1.277.671-2.056-.499.405-1.3.11-1.63-.448-.33-.559-.39-1.248-.322-1.898.096-.908.193-1.821.135-2.733-.057-.911-.277-1.83-.765-2.584-.72-1.113-2.02-1.662-3.293-1.662"/><path fill="#2CDACB" d="M8.568 18.428c-.224.07-.44.17-.628.308-.987.727-1.016 1.916-1.056 2.137a.03.03 0 0 0 .03.036l5.566.84 5.566-.84a.03.03 0 0 0 .03-.036c-.04-.214-.054-1.341-.972-2.072a2.208 2.208 0 0 0-.719-.375l-.268-.084c-1.113.391-2.343.61-3.637.61-1.295 0-2.524-.219-3.637-.61l-.275.086z"/><path fill="#F2CBB1" d="M13.656 17.277c-.087-.506-.077-1.841-.075-2.059a.03.03 0 0 0-.03-.03h-2.142a.03.03 0 0 0-.03.03c.001.216.01 1.526-.076 2.06-.028.178-.127.338-.301.39l-2.159.674c1.113.392 2.342.61 3.637.61 1.294 0 2.524-.218 3.637-.61l-2.16-.673c-.173-.053-.27-.213-.3-.392"/><path fill="#F9DAC5" d="M12.48 7.928c-3.285-.128-3.332 3.006-3.283 4.036.035.748.33 1.835.488 2.375.09.31.255.596.492.822.857.818 2.303 1.096 2.303 1.096s1.446-.278 2.303-1.096a1.85 1.85 0 0 0 .492-.822c.159-.54.452-1.627.488-2.375.049-1.03.001-4.164-3.283-4.036"/></g></g><g transform="translate(107.85 16.198)"><mask id="t" fill="#fff"><use xlink:href="#s"/></mask><use fill="#4EABF6" xlink:href="#s"/><g mask="url(#t)"><path fill="#F2CBB1" d="M13.909 14.788a2.695 2.695 0 0 0-.838-.389l-.32-.084.007-.002-2.514-.818c-.203-.054-.315-.22-.352-.405-.102-.525-.09-1.786-.087-2.011 0-.018-.016-.032-.036-.032H7.035c-.02 0-.036.014-.036.032.002.222.012 1.459-.088 2.01a.49.49 0 0 1-.35.406l-2.515.818.006.002-.327.087c-.26.072-.511.175-.731.32-1.15.751-1.183 1.982-1.23 2.212-.005.02.012.037.035.037h13.206c.023 0 .04-.018.036-.037-.047-.223-.064-1.39-1.132-2.146"/><path fill="#24CE92" d="M13.909 14.788a2.695 2.695 0 0 0-.838-.389l-.32-.084.007-.002-2.163-.703c-.676.257-1.416.4-2.193.4a6.166 6.166 0 0 1-2.193-.4l-2.163.703.006.002-.327.087c-.26.072-.511.175-.731.32-1.15.751-1.183 1.982-1.23 2.212-.005.02.012.037.035.037h13.206c.023 0 .04-.018.036-.037-.047-.223-.064-1.39-1.132-2.146"/><path fill="#F9D5B4" d="M8.372 3.772C5.118 3.664 5.07 6.781 5.119 7.808c.035.748.213 1.835.371 2.375.091.31.256.829.492 1.054.635.606 1.424 1.143 1.911 1.329.088.033.28.049.479.047.198.002.39-.014.478-.047.488-.186 1.276-.723 1.91-1.329.237-.225.402-.744.493-1.054.158-.54.336-1.627.371-2.375.05-1.027.001-4.144-3.252-4.036"/><path fill="#EFBE67" d="M11.466 5.127a.417.417 0 0 0-.057-.159 2.65 2.65 0 0 0-.802-.808 2.774 2.774 0 0 0-1.612-1.64c-.09.548-.44.837-.836 1.08-1.285.021-2.27.597-2.75 1.37a.42.42 0 0 0-.057.158c-.366.702-.224 1.515-.234 2.104.024.388.088.768.208 1.111.097-.528.063-1.07.184-1.603a6.47 6.47 0 0 1 .374-1.14c.315.126.671.228 1.055.302l.005.002c1.406.55 3.188-.054 3.188-.054v-.001a5.68 5.68 0 0 0 .803-.248c.16.367.285.749.373 1.139.121.532.087 1.075.184 1.603a4.18 4.18 0 0 0 .208-1.111c-.01-.589.132-1.402-.234-2.104"/></g></g><g transform="translate(43.218 52.041)"><rect width="25.182" height="34.421" fill="#FFF" stroke="#EEE" rx="1.68"/><path stroke="#E2E2E2" stroke-linecap="round" stroke-linejoin="round" stroke-width="1.68" d="M7.135 27.285h11.751"/><mask id="v" fill="#fff"><use xlink:href="#u"/></mask><use fill="#2CDACB" xlink:href="#u"/><g mask="url(#v)"><path fill="#F9DAC5" d="M17.104 18.801a2.21 2.21 0 0 0-.719-.375l-2.427-.757c-.174-.053-.27-.213-.302-.392-.087-.506-.077-1.841-.075-2.059a.03.03 0 0 0-.03-.03h-2.142a.03.03 0 0 0-.03.03c.001.216.01 1.526-.076 2.06-.028.178-.127.338-.301.39l-2.434.76c-.224.07-.439.17-.628.308-.987.727-1.016 1.916-1.057 2.137a.03.03 0 0 0 .03.036h11.133a.03.03 0 0 0 .03-.036c-.04-.214-.054-1.341-.972-2.072"/><path fill="#F9DAC5" d="M17.104 18.801a2.21 2.21 0 0 0-.719-.375l-2.427-.757c-.174-.053-.27-.213-.302-.392-.087-.506-.077-1.841-.075-2.059a.03.03 0 0 0-.03-.03h-2.142a.03.03 0 0 0-.03.03c.001.216.01 1.526-.076 2.06-.028.178-.127.338-.301.39l-2.434.76c-.224.07-.439.17-.628.308-.987.727-1.016 1.916-1.057 2.137a.03.03 0 0 0 .03.036h11.133a.03.03 0 0 0 .03-.036c-.04-.214-.054-1.341-.972-2.072"/><path fill="#F381C1" d="M12.419 6.968c-1.274 0-2.574.55-3.294 1.662-.488.754-.708 1.673-.765 2.584-.058.912.039 1.825.135 2.733.069.65.008 1.34-.322 1.898-.33.559-.782.853-1.281.448.031.779.08 1.569.671 2.056.591.488 1.042.699 1.789.563h6.133a2.653 2.653 0 0 0 2.138-.563c.59-.487.64-1.277.671-2.056-.499.405-1.3.11-1.63-.448-.33-.559-.39-1.248-.322-1.898.096-.908.193-1.821.135-2.733-.057-.911-.277-1.83-.765-2.584-.72-1.113-2.02-1.662-3.293-1.662"/><path fill="#2CDACB" d="M8.568 18.428c-.224.07-.44.17-.628.308-.987.727-1.016 1.916-1.056 2.137a.03.03 0 0 0 .03.036l5.566.84 5.566-.84a.03.03 0 0 0 .03-.036c-.04-.214-.054-1.341-.972-2.072a2.208 2.208 0 0 0-.719-.375l-.268-.084c-1.113.391-2.343.61-3.637.61-1.295 0-2.524-.219-3.637-.61l-.275.086z"/><path fill="#F3E0D3" d="M13.656 17.277c-.087-.506-.077-1.841-.075-2.059a.03.03 0 0 0-.03-.03h-2.142a.03.03 0 0 0-.03.03c.001.216.01 1.526-.076 2.06-.028.178-.127.338-.301.39l-2.159.674c1.113.392 2.342.61 3.637.61 1.294 0 2.524-.218 3.637-.61l-2.16-.673c-.173-.053-.27-.213-.3-.392"/><path fill="#FFEBDE" d="M12.48 7.928c-3.285-.128-3.332 3.006-3.283 4.036.035.748.33 1.835.488 2.375.09.31.255.596.492.822.857.818 2.303 1.096 2.303 1.096s1.446-.278 2.303-1.096a1.85 1.85 0 0 0 .492-.822c.159-.54.452-1.627.488-2.375.049-1.03.001-4.164-3.283-4.036"/></g></g><g transform="translate(73.436 52.041)"><rect width="25.182" height="34.421" fill="#FFF" stroke="#EEE" rx="1.68"/><path stroke="#E2E2E2" stroke-linecap="round" stroke-linejoin="round" stroke-width="1.68" d="M7.135 27.285h11.751"/><mask id="x" fill="#fff"><use xlink:href="#w"/></mask><use fill="#C17BC7" xlink:href="#w"/><g mask="url(#x)"><path fill="#F9DAC5" d="M17.104 18.801a2.21 2.21 0 0 0-.719-.375l-2.427-.757c-.174-.053-.27-.213-.302-.392-.087-.506-.077-1.841-.075-2.059a.03.03 0 0 0-.03-.03h-2.142a.03.03 0 0 0-.03.03c.001.216.01 1.526-.076 2.06-.028.178-.127.338-.301.39l-2.434.76c-.224.07-.439.17-.628.308-.987.727-1.016 1.916-1.057 2.137a.03.03 0 0 0 .03.036h11.133a.03.03 0 0 0 .03-.036c-.04-.214-.054-1.341-.972-2.072"/><path fill="#F9DAC5" d="M17.104 18.801a2.21 2.21 0 0 0-.719-.375l-2.427-.757c-.174-.053-.27-.213-.302-.392-.087-.506-.077-1.841-.075-2.059a.03.03 0 0 0-.03-.03h-2.142a.03.03 0 0 0-.03.03c.001.216.01 1.526-.076 2.06-.028.178-.127.338-.301.39l-2.434.76c-.224.07-.439.17-.628.308-.987.727-1.016 1.916-1.057 2.137a.03.03 0 0 0 .03.036h11.133a.03.03 0 0 0 .03-.036c-.04-.214-.054-1.341-.972-2.072"/><path fill="#E87E49" d="M12.419 6.968c-1.274 0-2.574.55-3.294 1.662-.488.754-.708 1.673-.765 2.584-.058.912.039 1.825.135 2.733.069.65.008 1.34-.322 1.898-.33.559-.782.853-1.281.448.031.779.08 1.569.671 2.056.591.488 1.042.699 1.789.563h6.133a2.653 2.653 0 0 0 2.138-.563c.59-.487.64-1.277.671-2.056-.499.405-1.3.11-1.63-.448-.33-.559-.39-1.248-.322-1.898.096-.908.193-1.821.135-2.733-.057-.911-.277-1.83-.765-2.584-.72-1.113-2.02-1.662-3.293-1.662"/><path fill="#2CDACB" d="M8.568 18.428c-.224.07-.44.17-.628.308-.987.727-1.016 1.916-1.056 2.137a.03.03 0 0 0 .03.036l5.566.84 5.566-.84a.03.03 0 0 0 .03-.036c-.04-.214-.054-1.341-.972-2.072a2.208 2.208 0 0 0-.719-.375l-.268-.084c-1.113.391-2.343.61-3.637.61-1.295 0-2.524-.219-3.637-.61l-.275.086z"/><path fill="#F2CBB1" d="M13.656 17.277c-.087-.506-.077-1.841-.075-2.059a.03.03 0 0 0-.03-.03h-2.142a.03.03 0 0 0-.03.03c.001.216.01 1.526-.076 2.06-.028.178-.127.338-.301.39l-2.159.674c1.113.392 2.342.61 3.637.61 1.294 0 2.524-.218 3.637-.61l-2.16-.673c-.173-.053-.27-.213-.3-.392"/><path fill="#F9DAC5" d="M12.48 7.928c-3.285-.128-3.332 3.006-3.283 4.036.035.748.33 1.835.488 2.375.09.31.255.596.492.822.857.818 2.303 1.096 2.303 1.096s1.446-.278 2.303-1.096a1.85 1.85 0 0 0 .492-.822c.159-.54.452-1.627.488-2.375.049-1.03.001-4.164-3.283-4.036"/></g></g><g transform="translate(77.633 56.24)"><mask id="z" fill="#fff"><use xlink:href="#y"/></mask><use fill="#F381C1" xlink:href="#y"/><g mask="url(#z)"><path fill="#F9D5B4" d="M6.64 15.532c.978.275 1.505.747 1.777 1.094.27-.348.798-.821 1.778-1.097 1.22-.344 1.568-1.07 1.668-1.443l-1.953-.594c-.182-.053-.283-.216-.315-.399-.092-.515-.08-1.874-.079-2.095 0-.018-.014-.03-.032-.03H7.247c-.018 0-.032.012-.032.03.002.219.011 1.553-.078 2.095-.03.183-.134.346-.316.4l-1.856.563c.087.362.419 1.122 1.676 1.476"/><path fill="#F9D5B4" d="M13.197 14.645a2.33 2.33 0 0 0-.751-.382l-2.536-.77c-.182-.054-.283-.217-.315-.4-.092-.515-.081-1.874-.078-2.095 0-.018-.015-.03-.033-.03H7.247c-.018 0-.032.012-.032.03.002.219.011 1.553-.078 2.095-.03.183-.134.346-.316.4l-2.542.772a2.235 2.235 0 0 0-.656.314c-1.032.74-1.062 1.95-1.104 2.175a.031.031 0 0 0 .031.037h11.631c.02 0 .035-.017.032-.037-.042-.218-.057-1.365-1.016-2.109"/><path fill="#F94831" d="M4.997 14.048l-.39.176v.015L5 14.062l-.002-.014"/><path fill="#C17BC7" d="M4.607 14.165l-.328.1a2.235 2.235 0 0 0-.656.314c-1.032.74-1.062 1.95-1.104 2.175a.031.031 0 0 0 .031.037h11.631c.02 0 .035-.017.032-.037-.042-.218-.057-1.365-1.016-2.109a2.33 2.33 0 0 0-.751-.382l-.217-.066v2.569H4.608v-2.601l.357-.109c.087.362.419 1.122 1.676 1.476.977.275 1.505.747 1.776 1.094.27-.348.798-.821 1.778-1.097 1.22-.344 1.568-1.07 1.668-1.443l.366.11v2.57H4.608v-2.601z"/><path fill="#F4C19A" d="M9.522 12.139c-.01-.464-.007-.905-.006-1.023 0-.017-.014-.03-.032-.03H7.247c-.018 0-.032.013-.032.03.001.118.004.557-.007 1.023a3.67 3.67 0 0 0 2.314 0"/><path fill="#F9D5B4" d="M8.366 3.577c-3.432-.131-3.482 3.059-3.43 4.108.037.761.344 1.868.51 2.418.094.315.266.606.513.836.896.833 2.407 1.116 2.407 1.116s1.51-.283 2.406-1.116c.247-.23.42-.52.514-.836.166-.55.473-1.657.51-2.418.05-1.012.974-4.276-3.43-4.108"/><path fill="#674C4C" d="M8.866 2.574c-.697.002-1.326.315-1.678.79a.375.375 0 0 0-.097-.047c-.56-.166-1.173.008-1.629.462-.456.453-.952 1.178-.953 1.925 0 .075.002.147.004.217.138.457.253.921.4 1.364.108.323.23.691.395 1.032a1.07 1.07 0 0 0 .033-.05l-.004-.025a2.048 2.048 0 0 1-.067-.811c-.005-.873.234-1.77 1.109-2.054a2.93 2.93 0 0 0 .683-.456c.46.975 1.646 1.647 2.835 1.587-.194-.237-.32-.51-.429-.79.287.26.647.442.971.662.4.27.778.663.777 1.137a2.21 2.21 0 0 0 .205-1.26c.013.057.025.112.032.164a5.22 5.22 0 0 1-.139 2.095c.336-.517.66-1.05.84-1.637.143-.46.198-.984.08-1.46a2.514 2.514 0 0 0-.618-1.551c-.526-.62-1.366-1.077-2.302-1.253a2.365 2.365 0 0 0-.43-.041h-.018z"/></g></g><g transform="translate(13 52.041)"><rect width="25.182" height="34.421" fill="#FFF" stroke="#EEE" rx="1.68"/><path stroke="#E2E2E2" stroke-linecap="round" stroke-linejoin="round" stroke-width="1.68" d="M7.135 27.285h11.751"/><mask id="B" fill="#fff"><use xlink:href="#A"/></mask><use fill="#C17BC7" xlink:href="#A"/><g mask="url(#B)"><path fill="#F9DAC5" d="M17.104 18.801a2.21 2.21 0 0 0-.719-.375l-2.427-.757c-.174-.053-.27-.213-.302-.392-.087-.506-.077-1.841-.075-2.059a.03.03 0 0 0-.03-.03h-2.142a.03.03 0 0 0-.03.03c.001.216.01 1.526-.076 2.06-.028.178-.127.338-.301.39l-2.434.76c-.224.07-.439.17-.628.308-.987.727-1.016 1.916-1.057 2.137a.03.03 0 0 0 .03.036h11.133a.03.03 0 0 0 .03-.036c-.04-.214-.054-1.341-.972-2.072"/><path fill="#F9DAC5" d="M17.104 18.801a2.21 2.21 0 0 0-.719-.375l-2.427-.757c-.174-.053-.27-.213-.302-.392-.087-.506-.077-1.841-.075-2.059a.03.03 0 0 0-.03-.03h-2.142a.03.03 0 0 0-.03.03c.001.216.01 1.526-.076 2.06-.028.178-.127.338-.301.39l-2.434.76c-.224.07-.439.17-.628.308-.987.727-1.016 1.916-1.057 2.137a.03.03 0 0 0 .03.036h11.133a.03.03 0 0 0 .03-.036c-.04-.214-.054-1.341-.972-2.072"/><path fill="#E87E49" d="M12.419 6.968c-1.274 0-2.574.55-3.294 1.662-.488.754-.708 1.673-.765 2.584-.058.912.039 1.825.135 2.733.069.65.008 1.34-.322 1.898-.33.559-.782.853-1.281.448.031.779.08 1.569.671 2.056.591.488 1.042.699 1.789.563h6.133a2.653 2.653 0 0 0 2.138-.563c.59-.487.64-1.277.671-2.056-.499.405-1.3.11-1.63-.448-.33-.559-.39-1.248-.322-1.898.096-.908.193-1.821.135-2.733-.057-.911-.277-1.83-.765-2.584-.72-1.113-2.02-1.662-3.293-1.662"/><path fill="#2CDACB" d="M8.568 18.428c-.224.07-.44.17-.628.308-.987.727-1.016 1.916-1.056 2.137a.03.03 0 0 0 .03.036l5.566.84 5.566-.84a.03.03 0 0 0 .03-.036c-.04-.214-.054-1.341-.972-2.072a2.208 2.208 0 0 0-.719-.375l-.268-.084c-1.113.391-2.343.61-3.637.61-1.295 0-2.524-.219-3.637-.61l-.275.086z"/><path fill="#F2CBB1" d="M13.656 17.277c-.087-.506-.077-1.841-.075-2.059a.03.03 0 0 0-.03-.03h-2.142a.03.03 0 0 0-.03.03c.001.216.01 1.526-.076 2.06-.028.178-.127.338-.301.39l-2.159.674c1.113.392 2.342.61 3.637.61 1.294 0 2.524-.218 3.637-.61l-2.16-.673c-.173-.053-.27-.213-.3-.392"/><path fill="#F9DAC5" d="M12.48 7.928c-3.285-.128-3.332 3.006-3.283 4.036.035.748.33 1.835.488 2.375.09.31.255.596.492.822.857.818 2.303 1.096 2.303 1.096s1.446-.278 2.303-1.096a1.85 1.85 0 0 0 .492-.822c.159-.54.452-1.627.488-2.375.049-1.03.001-4.164-3.283-4.036"/></g></g><g transform="translate(17.197 56.24)"><mask id="D" fill="#fff"><use xlink:href="#C"/></mask><use fill="#F9B353" xlink:href="#C"/><g mask="url(#D)"><path fill="#F9DAC5" d="M13.909 14.55a2.697 2.697 0 0 0-.838-.389l-.32-.085.007-.002-2.514-.817c-.203-.055-.315-.22-.351-.406-.103-.524-.09-1.786-.088-2.01 0-.018-.016-.032-.036-.032H7.035c-.02 0-.037.014-.036.031.002.223.012 1.46-.088 2.011a.49.49 0 0 1-.35.406l-2.515.817.006.002-.327.087c-.26.073-.511.176-.731.32-1.15.752-1.183 1.983-1.23 2.212-.005.02.012.038.035.038h13.206c.023 0 .04-.018.036-.038-.047-.222-.064-1.389-1.132-2.145"/><path fill="#F46E6E" d="M13.909 14.55a2.697 2.697 0 0 0-.838-.389l-.32-.085.007-.002-2.264-.736-2.092 2.707-2.092-2.707-2.264.736.006.002-.327.087c-.26.073-.511.176-.731.32-1.15.752-1.183 1.983-1.23 2.212-.005.02.012.038.035.038h13.206c.023 0 .04-.018.036-.038-.047-.222-.064-1.389-1.132-2.145"/><path fill="#F2BC9E" d="M9.839 12.377c-.012-.587-.034-1.14-.033-1.288 0-.022-.016-.04-.036-.04H7.035c-.02 0-.035.018-.035.04.001.148-.022.703-.035 1.292.196.204.92.494 1.407.497.507.003 1.256-.34 1.467-.5"/><path fill="#F9DAC5" d="M5.821 8.136c.193.52.083 1.33-.245 1.487-.328.157-.75-.4-.943-.92-.192-.518-.083-1.066.245-1.223.329-.156.75.137.943.656m5.164 0c-.193.52-.083 1.33.245 1.487.328.157.75-.4.943-.92.192-.518.083-1.066-.245-1.223-.329-.156-.75.137-.943.656"/><path fill="#F9DAC5" d="M8.373 3.534C5.119 3.426 5.07 6.543 5.12 7.57c.036.748.213 1.835.372 2.375.09.31.255.828.491 1.054.635.605 1.424 1.142 1.911 1.328.088.034.28.05.479.048.198.001.39-.014.478-.048.488-.186 1.276-.723 1.911-1.328.236-.226.401-.744.492-1.054.158-.54.336-1.627.372-2.375.048-1.027 0-4.144-3.253-4.036"/><g transform="translate(4.952 1.789)"><mask id="F" fill="#fff"><use xlink:href="#E"/></mask><path fill="#703A16" d="M6.477 3.159a.42.42 0 0 0-.057-.16 2.529 2.529 0 0 0-.468-.55c.002-.186-.077-.39-.17-.557A4.538 4.538 0 0 0 3.831.058c-.006.444-.354.813-.736 1.037-.383.224-.817.352-1.19.593-.095.057-.264.19-.402.342A2.743 2.743 0 0 0 .42 3a.421.421 0 0 0-.057.159C-.003 3.86.055 4.674.045 5.262.07 5.65.217 6.727.337 7.07c.097-.528.063-1.768.184-2.3.09-.391.214-.773.374-1.14.81-.848 4.176-.81 5.05 0 .16.367.286.749.374 1.14.121.532.087 1.772.184 2.3.12-.344.268-1.421.292-1.81-.01-.587.048-1.401-.318-2.102" mask="url(#F)"/></g><path fill="#703A16" d="M8.346 11.81c-.572 0-1.036-.352-1.036-.786 0-.433.464-.785 1.036-.785.571 0 1.035.352 1.035.785 0 .434-.464.786-1.035.786m3.075-3.093c-.17 1.29-3.062 1.092-3.062 1.092h-.027s-2.892.198-3.062-1.092c0 0 .101 4.73 2.949 4.997v.013c.042 0 .085-.002.127-.004.041.002.084.004.127.004v-.013c2.847-.266 2.948-4.997 2.948-4.997"/></g></g><g transform="translate(103.654 52.041)"><rect width="25.182" height="34.421" fill="#FFF" stroke="#EEE" rx="1.68"/><path stroke="#E2E2E2" stroke-linecap="round" stroke-linejoin="round" stroke-width="1.68" d="M7.135 27.285h11.751"/></g><g transform="translate(107.85 56.24)"><mask id="H" fill="#fff"><use xlink:href="#G"/></mask><use fill="#4EABF6" xlink:href="#G"/><g mask="url(#H)"><path fill="#D8D8D8" d="M8.958 1.721a.542.542 0 0 0-.224.05.538.538 0 0 0-.245.14.555.555 0 0 0-.12.144.55.55 0 0 0-.121-.144.538.538 0 0 0-.246-.14.542.542 0 0 0-.223-.05h-.01a.582.582 0 0 0-.052.003.73.73 0 0 0-.492.236l-.107.155-.005.01a.679.679 0 0 0-.348-.1c-.41 0-.79.224-.908.614a1.15 1.15 0 0 0-.422-.081c-.556 0-1.003.546-.976 1.082.002.028.006.055.01.082-.469.04-.882.326-.938.837a.984.984 0 0 0 .113.546h-.082a.528.528 0 0 0-.257.068.525.525 0 0 0-.222.152.529.529 0 0 0-.14.24.52.52 0 0 0-.048.269c.015.177.08.36.219.48l.068.047a.872.872 0 0 0-.107.083l-.145.177a.85.85 0 0 0-.127.428v.063a.646.646 0 0 0 .061.32c.03.107.086.201.167.282a.58.58 0 0 0 .065.066l-.134.17a.878.878 0 0 0-.123.444v.063a.667.667 0 0 0 .07.328c.003.012.008.023.012.034-.014.006-.029.012-.043.02a.642.642 0 0 0-.327.367.77.77 0 0 0-.033.211v.01a.58.58 0 0 0 .06.257l.063.126c.074.15.208.275.366.33a.478.478 0 0 0 .2.03.44.44 0 0 0 .054.133.436.436 0 0 0 .135.185c.057.053.122.09.196.108a.442.442 0 0 0 .274.029.715.715 0 0 0-.107.372v.063c-.004.1.018.193.064.28.03.09.081.169.154.234a.541.541 0 0 0 .232.145.539.539 0 0 0 .27.058l.19-.026.055-.02a.622.622 0 0 0 .038.184c.02.106.066.2.136.284a.62.62 0 0 0 .249.206c.093.064.196.1.311.109l.214-.004a.836.836 0 0 0 .175-.048.556.556 0 0 0 .088.135.545.545 0 0 0 .218.173.546.546 0 0 0 .273.09l.195-.007a.723.723 0 0 0 .247-.092.96.96 0 0 0 .856.466.94.94 0 0 0 .644-.229.94.94 0 0 0 .644.229.96.96 0 0 0 .857-.466.723.723 0 0 0 .246.092l.196.007a.547.547 0 0 0 .272-.09.546.546 0 0 0 .219-.173.553.553 0 0 0 .088-.135.836.836 0 0 0 .175.048l.214.004a.626.626 0 0 0 .311-.109.615.615 0 0 0 .249-.206.626.626 0 0 0 .136-.284.622.622 0 0 0 .038-.184l.055.02.19.026a.539.539 0 0 0 .27-.058.542.542 0 0 0 .232-.145.536.536 0 0 0 .154-.235.546.546 0 0 0 .064-.28v-.062c0-.136-.04-.26-.107-.372a.443.443 0 0 0 .274-.029.442.442 0 0 0 .196-.108.437.437 0 0 0 .135-.185.442.442 0 0 0 .053-.133.478.478 0 0 0 .2-.03.662.662 0 0 0 .367-.33l.064-.126a.58.58 0 0 0 .059-.256v-.011a.772.772 0 0 0-.033-.21.642.642 0 0 0-.328-.369l-.042-.019.013-.034a.667.667 0 0 0 .069-.328v-.063a.878.878 0 0 0-.123-.444l-.134-.17a.704.704 0 0 0 .065-.066.642.642 0 0 0 .166-.283.645.645 0 0 0 .061-.319V7.05a.851.851 0 0 0-.127-.428l-.145-.177a.876.876 0 0 0-.106-.083l.068-.048a.708.708 0 0 0 .219-.48.522.522 0 0 0-.048-.268.53.53 0 0 0-.14-.24.526.526 0 0 0-.222-.152.527.527 0 0 0-.257-.068h-.082a.985.985 0 0 0 .113-.546c-.057-.51-.47-.798-.938-.837.004-.027.008-.054.01-.082.027-.536-.42-1.082-.976-1.082-.148 0-.29.029-.422.08-.118-.39-.498-.612-.908-.612a.679.679 0 0 0-.348.1l-.005-.011-.107-.155c-.121-.146-.31-.217-.492-.236a.584.584 0 0 0-.051-.003h-.011z"/><path fill="#2C140B" d="M8.958 1.721a.542.542 0 0 0-.224.05.538.538 0 0 0-.245.14.555.555 0 0 0-.12.144.55.55 0 0 0-.121-.144.538.538 0 0 0-.246-.14.542.542 0 0 0-.223-.05h-.01a.582.582 0 0 0-.052.003.73.73 0 0 0-.492.236l-.107.155-.005.01a.679.679 0 0 0-.348-.1c-.41 0-.79.224-.908.614a1.15 1.15 0 0 0-.422-.081c-.556 0-1.003.546-.976 1.082.002.028.006.055.01.082-.469.04-.882.326-.938.837a.984.984 0 0 0 .113.546h-.082a.528.528 0 0 0-.257.068.525.525 0 0 0-.222.152.529.529 0 0 0-.14.24.52.52 0 0 0-.048.269c.015.177.08.36.219.48l.068.047a.872.872 0 0 0-.107.083l-.145.177a.85.85 0 0 0-.127.428v.063a.646.646 0 0 0 .061.32c.03.107.086.201.167.282a.58.58 0 0 0 .065.066l-.134.17a.878.878 0 0 0-.123.444v.063a.667.667 0 0 0 .07.328c.003.012.008.023.012.034-.014.006-.029.012-.043.02a.642.642 0 0 0-.327.367.77.77 0 0 0-.033.211v.01a.58.58 0 0 0 .06.257l.063.126c.074.15.208.275.366.33a.478.478 0 0 0 .2.03.44.44 0 0 0 .054.133.436.436 0 0 0 .135.185c.057.053.122.09.196.108a.442.442 0 0 0 .274.029.715.715 0 0 0-.107.372v.063c-.004.1.018.193.064.28.03.09.081.169.154.234a.541.541 0 0 0 .232.145.539.539 0 0 0 .27.058l.19-.026.055-.02a.622.622 0 0 0 .038.184c.02.106.066.2.136.284a.62.62 0 0 0 .249.206c.093.064.196.1.311.109l.214-.004a.836.836 0 0 0 .175-.048.556.556 0 0 0 .088.135.545.545 0 0 0 .218.173.546.546 0 0 0 .273.09l.195-.007a.723.723 0 0 0 .247-.092.96.96 0 0 0 .856.466.94.94 0 0 0 .644-.229.94.94 0 0 0 .644.229.96.96 0 0 0 .857-.466.723.723 0 0 0 .246.092l.196.007a.547.547 0 0 0 .272-.09.546.546 0 0 0 .219-.173.553.553 0 0 0 .088-.135.836.836 0 0 0 .175.048l.214.004a.626.626 0 0 0 .311-.109.615.615 0 0 0 .249-.206.626.626 0 0 0 .136-.284.622.622 0 0 0 .038-.184l.055.02.19.026a.539.539 0 0 0 .27-.058.542.542 0 0 0 .232-.145.536.536 0 0 0 .154-.235.546.546 0 0 0 .064-.28v-.062c0-.136-.04-.26-.107-.372a.443.443 0 0 0 .274-.029.442.442 0 0 0 .196-.108.437.437 0 0 0 .135-.185.442.442 0 0 0 .053-.133.478.478 0 0 0 .2-.03.662.662 0 0 0 .367-.33l.064-.126a.58.58 0 0 0 .059-.256v-.011a.772.772 0 0 0-.033-.21.642.642 0 0 0-.328-.369l-.042-.019.013-.034a.667.667 0 0 0 .069-.328v-.063a.878.878 0 0 0-.123-.444l-.134-.17a.704.704 0 0 0 .065-.066.642.642 0 0 0 .166-.283.645.645 0 0 0 .061-.319V7.05a.851.851 0 0 0-.127-.428l-.145-.177a.876.876 0 0 0-.106-.083l.068-.048a.708.708 0 0 0 .219-.48.522.522 0 0 0-.048-.268.53.53 0 0 0-.14-.24.526.526 0 0 0-.222-.152.527.527 0 0 0-.257-.068h-.082a.985.985 0 0 0 .113-.546c-.057-.51-.47-.798-.938-.837.004-.027.008-.054.01-.082.027-.536-.42-1.082-.976-1.082-.148 0-.29.029-.422.08-.118-.39-.498-.612-.908-.612a.679.679 0 0 0-.348.1l-.005-.011-.107-.155c-.121-.146-.31-.217-.492-.236a.584.584 0 0 0-.051-.003h-.011z"/><path fill="#FFF68C" d="M5.379 14.304l.441-.138v1.386l2.548.723 2.548-.723v-1.386l.442.138.705.22c.246.077.478.195.68.356.868.692.882 1.76.92 1.964a.029.029 0 0 1-.03.034H3.104a.029.029 0 0 1-.028-.034c.038-.21.065-1.337.999-2.025.179-.132.382-.227.594-.293l.711-.222z"/><path fill="#AD714A" d="M8.368 16.275l2.548-.723v-1.386l-1.15-.36c-.164-.05-.255-.2-.285-.37-.083-.48-.073-1.746-.07-1.952a.028.028 0 0 0-.03-.029H7.355a.029.029 0 0 0-.029.029c.002.204.01 1.446-.07 1.951-.028.17-.121.322-.286.372l-1.15.359v1.386l2.548.723z"/><path fill="#875838" d="M9.416 12.547c-.01-.433-.007-.843-.006-.953a.028.028 0 0 0-.029-.028H7.355a.028.028 0 0 0-.029.028c.001.11.004.519-.006.952a3.235 3.235 0 0 0 2.096 0"/><path fill="#AD714A" d="M8.368 4.574C5.261 4.452 5.216 7.423 5.263 8.4c.033.71.311 1.74.461 2.251.086.294.242.566.466.78.81.775 2.178 1.038 2.178 1.038s1.368-.263 2.18-1.039c.223-.213.379-.485.465-.779.15-.511.427-1.542.461-2.25.046-.977.001-3.948-3.106-3.826"/><g transform="translate(5.036 6.716)"><mask id="J" fill="#fff"><use xlink:href="#I"/></mask><path d="M.02.05l.078 2.353c.11.23.565.686.56.909L.715.97C.723.64.818.02.259.02.189.02.11.03.02.05" mask="url(#J)"/></g><g transform="translate(10.912 6.716)"><mask id="L" fill="#fff"><use xlink:href="#K"/></mask><path d="M.057.97l.04 2.342c-.004-.223.315-.68.391-.91a6.14 6.14 0 0 0 .24-.968C.79 1.047 1.016.204.543.05A.544.544 0 0 0 .376.02c-.392 0-.325.62-.32.95" mask="url(#L)"/></g><g transform="translate(5.036 4.198)"><mask id="N" fill="#fff"><use xlink:href="#M"/></mask><path d="M.048 2.395c0 .34-.046.664.14.957H6.5c.186-.293.14-.616.14-.957 0-1.314-1.393-2.38-3.296-2.38C1.44.015.048 1.081.048 2.395" mask="url(#N)"/></g></g></g><g><path fill="#53D483" d="M20 10c0 5.523-4.477 10-10 10S0 15.523 0 10 4.477 0 10 0s10 4.477 10 10"/><path fill="#FFF" stroke="#FFF" stroke-width=".833" d="M13.6 9.6h-3.2V6.4c0-.24-.16-.4-.4-.4-.24 0-.4.16-.4.4v3.2H6.4c-.24 0-.4.16-.4.4 0 .24.16.4.4.4h3.2v3.2c0 .24.16.4.4.4.24 0 .4-.16.4-.4v-3.2h3.2c.24 0 .4-.16.4-.4 0-.24-.16-.4-.4-.4"/></g></g></svg>