<svg width="152" height="82" viewBox="0 0 152 82" xmlns="http://www.w3.org/2000/svg"><title>Kanban Graphic</title><g fill="none" fill-rule="evenodd"><path d="M40 65.5H6c-3.3 0-6-2.7-6-6v-53c0-3.3 2.7-6 6-6h34c3.3 0 6 2.7 6 6v53c0 3.3-2.7 6-6 6M92.25 82h-34c-3.3 0-6-2.7-6-6V6.5c0-3.3 2.7-6 6-6h34c3.3 0 6 2.7 6 6V76c0 3.3-2.7 6-6 6m53-16.5h-34c-3.3 0-6-2.7-6-6v-53c0-3.3 2.7-6 6-6h34c3.3 0 6 2.7 6 6v53c0 3.3-2.7 6-6 6" fill="#F7F7F7"/><path d="M12 9h22m30.25 0h22m31 0h22" stroke="#CECECE" stroke-width="2" stroke-linecap="round" stroke-linejoin="round"/><path d="M38 31.996H8c-1.1 0-2-.9-2-2v-11c0-1.1.9-2 2-2h30c1.1 0 2 .9 2 2v11c0 1.1-.9 2-2 2" fill="#FFF"/><path d="M38 31.996H8c-1.1 0-2-.9-2-2v-11c0-1.1.9-2 2-2h30c1.1 0 2 .9 2 2v11c0 1.1-.9 2-2 2z" stroke="#E0E0E0" stroke-width="2"/><path d="M38 51.496H8c-1.1 0-2-.9-2-2v-11c0-1.1.9-2 2-2h30c1.1 0 2 .9 2 2v11c0 1.1-.9 2-2 2" fill="#FFF"/><path d="M38 51.496H8c-1.1 0-2-.9-2-2v-11c0-1.1.9-2 2-2h30c1.1 0 2 .9 2 2v11c0 1.1-.9 2-2 2z" stroke="#E0E0E0" stroke-width="2"/><path d="M90 32.246H60c-1.1 0-2-.9-2-2v-11c0-1.1.9-2 2-2h30c1.1 0 2 .9 2 2v11c0 1.1-.9 2-2 2" fill="#FFF"/><path d="M90 32.246H60c-1.1 0-2-.9-2-2v-11c0-1.1.9-2 2-2h30c1.1 0 2 .9 2 2v11c0 1.1-.9 2-2 2z" stroke="#E0E0E0" stroke-width="2"/><path d="M90 51.746H60c-1.1 0-2-.9-2-2v-11c0-1.1.9-2 2-2h30c1.1 0 2 .9 2 2v11c0 1.1-.9 2-2 2" fill="#FFF"/><path d="M90 51.746H60c-1.1 0-2-.9-2-2v-11c0-1.1.9-2 2-2h30c1.1 0 2 .9 2 2v11c0 1.1-.9 2-2 2z" stroke="#E0E0E0" stroke-width="2"/><path d="M90.25 71h-30c-1.1 0-2-.9-2-2V58c0-1.1.9-2 2-2h30c1.1 0 2 .9 2 2v11c0 1.1-.9 2-2 2" fill="#FFF"/><path d="M90.25 71h-30c-1.1 0-2-.9-2-2V58c0-1.1.9-2 2-2h30c1.1 0 2 .9 2 2v11c0 1.1-.9 2-2 2z" stroke="#E0E0E0" stroke-width="2"/><path d="M143.25 32.75h-30c-1.1 0-2-.9-2-2v-11c0-1.1.9-2 2-2h30c1.1 0 2 .9 2 2v11c0 1.1-.9 2-2 2" fill="#FFF"/><path d="M143.25 32.75h-30c-1.1 0-2-.9-2-2v-11c0-1.1.9-2 2-2h30c1.1 0 2 .9 2 2v11c0 1.1-.9 2-2 2z" stroke="#E0E0E0" stroke-width="2"/><path d="M143.25 52.25h-30c-1.1 0-2-.9-2-2v-11c0-1.1.9-2 2-2h30c1.1 0 2 .9 2 2v11c0 1.1-.9 2-2 2" fill="#FFF"/><path d="M143.25 52.25h-30c-1.1 0-2-.9-2-2v-11c0-1.1.9-2 2-2h30c1.1 0 2 .9 2 2v11c0 1.1-.9 2-2 2z" stroke="#E0E0E0" stroke-width="2"/></g></svg>