<svg width="134" height="70" viewBox="0 0 134 70" xmlns="http://www.w3.org/2000/svg"><g stroke="#E0E0E0" stroke-width="2" fill="none" fill-rule="evenodd"><path d="M25.406 5h107.34" stroke-linecap="round" stroke-linejoin="round"/><path d="M12 15.01H4c-1.65 0-3-1.35-3-3v-8c0-1.65 1.35-3 3-3h8c1.65 0 3 1.35 3 3v8c0 1.65-1.35 3-3 3z"/><path d="M25.406 11.5H96.5M25.406 31.488h107.34" stroke-linecap="round" stroke-linejoin="round"/><path d="M12 41.496H4c-1.65 0-3-1.35-3-3v-8c0-1.65 1.35-3 3-3h8c1.65 0 3 1.35 3 3v8c0 1.65-1.35 3-3 3z"/><path d="M25.406 37.988H96.5M25.406 58.99h107.34" stroke-linecap="round" stroke-linejoin="round"/><path d="M12 69H4c-1.65 0-3-1.35-3-3v-8c0-1.65 1.35-3 3-3h8c1.65 0 3 1.35 3 3v8c0 1.65-1.35 3-3 3z"/><path d="M25.406 65.49H96.5" stroke-linecap="round" stroke-linejoin="round"/></g></svg>